<?xml version="1.0" encoding="utf-8"?>
<!-- Generator: Adobe Illustrator 22.0.1, SVG Export Plug-In . SVG Version: 6.00 Build 0)  -->
<svg version="1.1" id="Capa_1" xmlns="http://www.w3.org/2000/svg" xmlns:xlink="http://www.w3.org/1999/xlink" x="0px" y="0px"
	 viewBox="0 0 500 500" style="enable-background:new 0 0 500 500;" xml:space="preserve">
<style type="text/css">
	.st0{fill:#551A8B;}
	.st1{fill:#FFFFFF;}
	.st2{fill:#304A95;}
	.st3{display:none;}
	.st4{display:inline;fill:none;stroke:#99989D;stroke-width:0.5038;stroke-miterlimit:10;}
	.st5{display:inline;}
	.st6{fill:none;stroke:#99989D;stroke-width:0.5038;stroke-miterlimit:10;}
</style>
<g>
	<path class="st0" d="M398.4,304.5c0,4.3-0.5,8.6-1.5,12.6c-2.5,10.5-7.9,19.8-15.5,27c-5.7,5.4-12.5,9.7-20.1,12.3h0
		c-0.9,0.3-1.7,0.6-2.6,0.8c-1.6,0.5-3.2,0.8-4.8,1.2L311,283.7l-60-104l-0.9-1.4c-15.5-11.8-33.3-20.7-52.6-25.9
		c-4-1.1-8.1-2-12.3-2.8l18-31.2l2-3.5c1.4-2.2,2.9-4.3,4.6-6.3c1-1.2,2.1-2.4,3.2-3.5c0.7-0.7,1.3-1.3,2-1.9
		c6.2-5.5,13.7-9.7,21.9-11.9c4.5-1.2,9.3-1.9,14.2-1.9c4.8,0,9.5,0.6,14,1.8c8.3,2.2,15.8,6.3,22,11.9c0.8,0.7,1.5,1.4,2.3,2.2
		c1,1,1.9,2,2.8,3c1.7,2,3.3,4.1,4.7,6.3c0,0,0.1,0.1,0.1,0.2l2.2,3.8l88.7,153.7l5.8,10.1c0.7,1.6,1.4,3.3,1.9,5
		c0.5,1.5,0.9,3,1.3,4.5c0.2,0.9,0.4,1.8,0.6,2.6C398.1,297.7,398.4,301.1,398.4,304.5z"/>
</g>
<g>
	<path class="st1" d="M354,358.3l-41-71l-2-3.5c0,0,0-0.1,0-0.1L354,358.3z"/>
	<path d="M311,283.7c0,0,0,0.1,0,0.1l2,3.5l41,71L311,283.7L311,283.7z"/>
</g>
<g>
	<path class="st1" d="M205.2,114.9l-2,3.5C203.8,117.2,204.5,116.1,205.2,114.9z"/>
	<path d="M205.2,114.9c-0.7,1.1-1.4,2.3-2,3.5L205.2,114.9L205.2,114.9z"/>
</g>
<g>
	<path class="st1" d="M299.2,118.5l-2.2-3.8C297.8,116,298.5,117.2,299.2,118.5z"/>
	<path d="M297,114.8l2.2,3.8C298.5,117.2,297.8,116,297,114.8L297,114.8z"/>
</g>
<g>
	<path class="st2" d="M354,358.3c-3,0.6-6.1,0.9-9.2,1h-42.1c1.6-4.5,3.1-9.1,4.3-13.7c3.5-13.1,5.3-26.9,5.3-41.1
		c0-5.8-0.3-11.6-0.9-17.2c-0.1-1.2-0.3-2.4-0.4-3.5l2,3.5L354,358.3z"/>
</g>
<g>
	<path class="st1" d="M344.8,359.3c-0.5,0-1,0-1.4,0c-0.5,0-1,0-1.4,0H344.8z"/>
	<path d="M344.8,359.3H342c0.5,0,0.9,0,1.4,0C343.9,359.4,344.4,359.4,344.8,359.3L344.8,359.3z"/>
</g>
<g>
	<path class="st2" d="M212.6,304.5c0,29.1-22.5,52.8-51.1,54.9c-1.3,0.1-2.6,0.1-3.9,0.1c-1.3,0-2.6,0-3.9-0.1c-2-0.1-4-0.4-6-0.8
		c-0.9-0.1-1.7-0.3-2.5-0.5c0,0,0,0,0,0c-1.7-0.4-3.3-0.9-4.9-1.4c-8.8-2.9-16.5-8-22.7-14.6c0,0,0,0,0,0
		c-5.4-5.8-9.6-12.7-12.1-20.3c-1.8-5.4-2.8-11.2-2.8-17.2c0-3,0.2-6,0.7-8.9c0.4-2.4,0.9-4.7,1.6-7c0,0,0,0,0,0
		c0.1-0.4,0.3-0.8,0.4-1.3v0h0c1.1-3.4,2.5-6.6,4.2-9.6c0.2-0.4,0.5-0.9,0.7-1.3c0.2-0.4,0.5-0.8,0.8-1.3c0.6-0.9,1.2-1.8,1.8-2.7
		c0.2-0.3,0.4-0.6,0.6-0.9c0.3-0.4,0.5-0.7,0.8-1.1c0.2-0.2,0.3-0.4,0.5-0.6c0.8-1,1.7-2,2.6-3c0,0,0,0,0,0
		c10-10.7,24.3-17.4,40.1-17.4c16.8,0,31.8,7.5,41.9,19.3c4.6,5.4,8.1,11.6,10.4,18.5C211.7,292.7,212.6,298.5,212.6,304.5z"/>
</g>
<g class="st3">
	<polyline class="st4" points="499.2,503 478.5,467 499.2,431 478.5,395 499.2,359 478.5,323 499.2,287 478.5,251 499.2,215 
		478.5,179 499.2,143 478.5,107 499.2,71 478.5,35 499.2,-1 	"/>
	<polyline class="st4" points="249.8,503 229,467 249.8,431 229,395 249.8,359 229,323 249.8,287 229,251 249.8,215 229,179 
		249.8,143 229,107 249.8,71 229,35 249.8,-1 	"/>
	<polyline class="st4" points="374.5,503 353.7,467 374.5,431 353.7,395 374.5,359 353.7,323 374.5,287 353.7,251 374.5,215 
		353.7,179 374.5,143 353.7,107 374.5,71 353.7,35 374.5,-1 	"/>
	<polyline class="st4" points="125.1,503 104.3,467 125.1,431 104.3,395 125.1,359 104.3,323 125.1,287 104.3,251 125.1,215 
		104.3,179 125.1,143 104.3,107 125.1,71 104.3,35 125.1,-1 	"/>
	<polyline class="st4" points="457.7,503 436.9,467 457.7,431 436.9,395 457.7,359 436.9,323 457.7,287 436.9,251 457.7,215 
		436.9,179 457.7,143 436.9,107 457.7,71 436.9,35 457.7,-1 	"/>
	<polyline class="st4" points="208.3,503 187.5,467 208.3,431 187.5,395 208.3,359 187.5,323 208.3,287 187.5,251 208.3,215 
		187.5,179 208.3,143 187.5,107 208.3,71 187.5,35 208.3,-1 	"/>
	<polyline class="st4" points="333,503 312.2,467 333,431 312.2,395 333,359 312.2,323 333,287 312.2,251 333,215 312.2,179 
		333,143 312.2,107 333,71 312.2,35 333,-1 	"/>
	<polyline class="st4" points="83.5,503 62.8,467 83.5,431 62.8,395 83.5,359 62.8,323 83.5,287 62.8,251 83.5,215 62.8,179 
		83.5,143 62.8,107 83.5,71 62.8,35 83.5,-1 	"/>
	<polyline class="st4" points="416.1,503 395.3,467 416.1,431 395.3,395 416.1,359 395.3,323 416.1,287 395.3,251 416.1,215 
		395.3,179 416.1,143 395.3,107 416.1,71 395.3,35 416.1,-1 	"/>
	<polyline class="st4" points="166.7,503 145.9,467 166.7,431 145.9,395 166.7,359 145.9,323 166.7,287 145.9,251 166.7,215 
		145.9,179 166.7,143 145.9,107 166.7,71 145.9,35 166.7,-1 	"/>
	<polyline class="st4" points="291.4,503 270.6,467 291.4,431 270.6,395 291.4,359 270.6,323 291.4,287 270.6,251 291.4,215 
		270.6,179 291.4,143 270.6,107 291.4,71 270.6,35 291.4,-1 	"/>
	<polyline class="st4" points="42,503 21.2,467 42,431 21.2,395 42,359 21.2,323 42,287 21.2,251 42,215 21.2,179 42,143 21.2,107 
		42,71 21.2,35 42,-1 	"/>
	<polyline class="st4" points="457.7,-1 478.5,35 457.7,71 478.5,107 457.7,143 478.5,179 457.7,215 478.5,251 457.7,287 478.5,323 
		457.7,359 478.5,395 457.7,431 478.5,467 457.7,503 	"/>
	<polyline class="st4" points="208.3,-1 229,35 208.3,71 229,107 208.3,143 229,179 208.3,215 229,251 208.3,287 229,323 208.3,359 
		229,395 208.3,431 229,467 208.3,503 	"/>
	<polyline class="st4" points="333,-1 353.7,35 333,71 353.7,107 333,143 353.7,179 333,215 353.7,251 333,287 353.7,323 333,359 
		353.7,395 333,431 353.7,467 333,503 	"/>
	<polyline class="st4" points="83.5,-1 104.3,35 83.5,71 104.3,107 83.5,143 104.3,179 83.5,215 104.3,251 83.5,287 104.3,323 
		83.5,359 104.3,395 83.5,431 104.3,467 83.5,503 	"/>
	<polyline class="st4" points="416.1,-1 436.9,35 416.1,71 436.9,107 416.1,143 436.9,179 416.1,215 436.9,251 416.1,287 436.9,323 
		416.1,359 436.9,395 416.1,431 436.9,467 416.1,503 	"/>
	<polyline class="st4" points="166.7,-1 187.5,35 166.7,71 187.5,107 166.7,143 187.5,179 166.7,215 187.5,251 166.7,287 187.5,323 
		166.7,359 187.5,395 166.7,431 187.5,467 166.7,503 	"/>
	<polyline class="st4" points="291.4,-1 312.2,35 291.4,71 312.2,107 291.4,143 312.2,179 291.4,215 312.2,251 291.4,287 312.2,323 
		291.4,359 312.2,395 291.4,431 312.2,467 291.4,503 	"/>
	<polyline class="st4" points="42,-1 62.8,35 42,71 62.8,107 42,143 62.8,179 42,215 62.8,251 42,287 62.8,323 42,359 62.8,395 
		42,431 62.8,467 42,503 	"/>
	<polyline class="st4" points="374.5,-1 395.3,35 374.5,71 395.3,107 374.5,143 395.3,179 374.5,215 395.3,251 374.5,287 395.3,323 
		374.5,359 395.3,395 374.5,431 395.3,467 374.5,503 	"/>
	<polyline class="st4" points="125.1,-1 145.9,35 125.1,71 145.9,107 125.1,143 145.9,179 125.1,215 145.9,251 125.1,287 145.9,323 
		125.1,359 145.9,395 125.1,431 145.9,467 125.1,503 	"/>
	<polyline class="st4" points="249.8,-1 270.6,35 249.8,71 270.6,107 249.8,143 270.6,179 249.8,215 270.6,251 249.8,287 270.6,323 
		249.8,359 270.6,395 249.8,431 270.6,467 249.8,503 	"/>
	<polyline class="st4" points="0.4,-1 21.2,35 0.4,71 21.2,107 0.4,143 21.2,179 0.4,215 21.2,251 0.4,287 21.2,323 0.4,359 
		21.2,395 0.4,431 21.2,467 0.4,503 	"/>
	<g class="st5">
		<rect x="0.4" y="-1" class="st6" width="498.8" height="504"/>
	</g>
	<g class="st5">
		<line class="st6" x1="499.2" y1="35" x2="0.4" y2="35"/>
		<line class="st6" x1="499.2" y1="71" x2="0.4" y2="71"/>
		<line class="st6" x1="499.2" y1="107" x2="0.4" y2="107"/>
		<line class="st6" x1="499.2" y1="143" x2="0.4" y2="143"/>
		<line class="st6" x1="499.2" y1="179" x2="0.4" y2="179"/>
		<line class="st6" x1="499.2" y1="215" x2="0.4" y2="215"/>
		<line class="st6" x1="499.2" y1="251" x2="0.4" y2="251"/>
		<line class="st6" x1="499.2" y1="287" x2="0.4" y2="287"/>
		<line class="st6" x1="499.2" y1="323" x2="0.4" y2="323"/>
		<line class="st6" x1="499.2" y1="359" x2="0.4" y2="359"/>
		<line class="st6" x1="499.2" y1="395" x2="0.4" y2="395"/>
		<line class="st6" x1="499.2" y1="431" x2="0.4" y2="431"/>
		<line class="st6" x1="499.2" y1="467" x2="0.4" y2="467"/>
	</g>
</g>
</svg>
